#define image_width  11
#define image_height 11
static unsigned char image_bits[] = {
 0x70,0xf8,0xf8,0xf8,0xfc,0xf9,0xfe,0xfb,0xff,0xff,0xff,0xff,
 0xff,0xff,0xfe,0xfb,0xfc,0xf9,0xf8,0xf8,0x70,0xf8};
